<svg width="17" height="15" viewBox="0 0 17 15" fill="none" xmlns="http://www.w3.org/2000/svg">
<path d="M11.6667 15C11.2083 15 10.8161 14.8369 10.49 14.5108C10.1639 14.1847 10.0006 13.7922 10 13.3333V10C10 9.54167 10.1633 9.14945 10.49 8.82333C10.8167 8.49722 11.2089 8.33389 11.6667 8.33333H15C15.4583 8.33333 15.8508 8.49667 16.1775 8.82333C16.5042 9.15 16.6672 9.54222 16.6667 10V13.3333C16.6667 13.7917 16.5036 14.1842 16.1775 14.5108C15.8514 14.8375 15.4589 15.0006 15 15H11.6667ZM11.6667 13.3333H15V10H11.6667V13.3333ZM0 12.5V10.8333H7.5V12.5H0ZM11.6667 6.66667C11.2083 6.66667 10.8161 6.50361 10.49 6.1775C10.1639 5.85139 10.0006 5.45889 10 5V1.66667C10 1.20833 10.1633 0.816111 10.49 0.49C10.8167 0.163889 11.2089 0.000555556 11.6667 0H15C15.4583 0 15.8508 0.163333 16.1775 0.49C16.5042 0.816667 16.6672 1.20889 16.6667 1.66667V5C16.6667 5.45833 16.5036 5.85083 16.1775 6.1775C15.8514 6.50417 15.4589 6.66722 15 6.66667H11.6667ZM11.6667 5H15V1.66667H11.6667V5ZM0 4.16667V2.5H7.5V4.16667H0Z" fill="black"/>
</svg>
