<svg width="16" height="16" viewBox="0 0 16 16" fill="none" xmlns="http://www.w3.org/2000/svg">
<path d="M5.68552 8.00322L11.7597 14.1185C11.9199 14.2798 11.998 14.4697 11.994 14.6882C11.9898 14.9068 11.9076 15.0968 11.7474 15.2581C11.5871 15.4194 11.3984 15.5 11.1813 15.5C10.9643 15.5 10.7756 15.4194 10.6153 15.2581L4.42959 9.04297C4.28378 8.89616 4.17572 8.7317 4.10543 8.54958C4.03514 8.36746 4 8.18534 4 8.00322C4 7.82111 4.03514 7.63899 4.10543 7.45687C4.17572 7.27475 4.28378 7.11029 4.42959 6.96348L10.6153 0.735791C10.7756 0.574509 10.9664 0.495965 11.1876 0.500159C11.4088 0.504354 11.5995 0.587092 11.7597 0.748374C11.9199 0.909656 12 1.09962 12 1.31827C12 1.53679 11.9199 1.72669 11.7597 1.88797L5.68552 8.00322Z" fill="#939393"/>
</svg>
